<?xml version="1.0" encoding="utf-8"?>
<!-- Generator: Adobe Illustrator 24.0.2, SVG Export Plug-In . SVG Version: 6.00 Build 0)  -->
<svg version="1.1" id="Layer_1" xmlns="http://www.w3.org/2000/svg" xmlns:xlink="http://www.w3.org/1999/xlink" x="0px" y="0px"
	 viewBox="0 0 210.1 112.1" style="enable-background:new 0 0 210.1 112.1;" xml:space="preserve">
<style type="text/css">
	.st0{fill:#FFFFFF;}
	.st1{fill:#00070C;}
	.st2{fill:#FF433C;}
	.st3{fill:#5CAEF5;}
	.st4{fill:#FFD100;}
	.st5{fill:#FFE366;}
	.st6{fill:#FF6963;}
	.st7{fill:#444A4D;}
</style>
<path class="st0" d="M91.4,42.6v-5.5h7.2v5.5H91.4z M81.7,46.1v-9h7.2v9H81.7z M91.4,54.1v-9h7.2v9H91.4z M81.7,54.1v-5.5h7.2v5.5
	H81.7z M83.2,44.6h4.3v-6h-4.3V44.6z M92.9,52.6h4.3v-6h-4.3V52.6z M92.9,41.1h4.3v-2.5h-4.3V41.1z M83.2,52.6h4.3v-2.5h-4.3V52.6z"
	/>
<g>
	<path class="st1" d="M131.2,78.9c6.6,6.6,10.6,15.7,10.6,25.7h60.9c0-26.9-10.9-51.2-28.4-68.8L131.2,78.9z"/>
	<path class="st2" d="M131.2,78.9l43.1-43.1c-17.7-17.7-42.1-28.7-69.1-28.7l0.1,61C115.4,68.1,124.6,72.3,131.2,78.9z"/>
	<path class="st3" d="M79.3,78.9L36.1,35.9c-17.6,17.6-28.4,42-28.4,68.8h61C68.7,94.6,72.8,85.6,79.3,78.9z"/>
	<path class="st4" d="M36.1,35.9l43.2,43.1c6.6-6.7,15.8-10.8,26-10.8l-0.1-61C78.2,7.2,53.8,18.1,36.1,35.9z"/>
</g>
<polygon class="st0" points="76.8,87.5 73.3,96.3 63.6,87.3 "/>
<g>
	<path class="st0" d="M26.9,79.5c2,0.6,3.7,1.2,5.1,1.8l-0.7,1.8c-1-0.4-2.1-0.8-3.4-1.2l-1.7,5.5l-1.6-0.5L26.9,79.5z M33.5,77.7
		l4.3,1.3l-0.6,1.9l-10.6-3.2l0.6-1.9l4.7,1.4l0.6-2.1l1.6,0.5L33.5,77.7z M34.8,80.7c-0.7,3-1.6,6.2-2.6,9.7l-1.6-0.3
		c0.4-1.3,0.7-2.4,0.9-3.2L28.6,86l0.6-1.9L32,85c0.6-2.2,1-3.8,1.2-4.7L34.8,80.7z M38.2,89.8l-4.6-1.4l0.6-1.9l3,0.9l2.4-8.1
		l1.6,0.5L38.2,89.8z"/>
	<path class="st0" d="M39.8,68.2c-1.4,1-2.8,1.6-4.1,1.7c0.3,0.4,0.6,1.1,0.9,2.1c0.3,1,0.4,1.8,0.4,2.4L35.1,75
		c0.1-1.2-0.1-2.3-0.6-3.4s-1.1-1.8-1.9-2.2L31,68.5l0.9-1.7l1.6,0.9c0.8,0.5,1.8,0.6,2.8,0.3c1-0.2,2-0.8,2.7-1.6L39.8,68.2z
		 M41.4,66.1l-7.5-4l0.9-1.7l7.5,4L41.4,66.1z M43.2,75.9l-4.9-2.6l4.6-8.6l4.9,2.6L43.2,75.9z M43.4,67.1l-2.8,5.2l2,1.1l2.8-5.2
		L43.4,67.1z"/>
	<path class="st5" d="M72.7,35.1c-2.3,0.8-4.3,0.8-6.2,0.2c-0.1,0.7-0.5,1.6-1.1,2.6s-1.4,1.9-2.2,2.5l-1.8-0.7
		c1.1-0.7,1.9-1.5,2.6-2.5c0.6-1,0.9-1.9,0.8-2.7l-3.8,2.1l-0.8-1.4l9.5-5.4l0.8,1.4l-3.8,2.1c0.6,0.5,1.4,0.7,2.6,0.7
		c1.1,0,2.3-0.3,3.6-0.8L72.7,35.1z M70.1,39.6l2.9,5.1l-1.7,1l-2.9-5.1l-5.2,2.9L62.4,42l12.2-6.9l0.8,1.4L70.1,39.6z"/>
	<path class="st5" d="M80.7,34c-1.1,0.4-2.2,0.3-3.2-0.1c-1-0.4-1.6-1.2-2-2.2c-0.3-1.1-0.2-2.1,0.3-3c0.6-0.9,1.4-1.6,2.6-1.9
		c1.1-0.4,2.2-0.3,3.1,0.1c1,0.4,1.6,1.2,1.9,2.3c0.3,1.1,0.2,2.1-0.3,3C82.7,33,81.9,33.7,80.7,34z M77.2,39.4l-0.7-1.5
		c4.5-1.4,7.9-2.6,10.1-3.5l0.6,1.5C84.1,37.1,80.8,38.3,77.2,39.4z M79,28.4c-0.6,0.2-1.1,0.6-1.3,1.1c-0.3,0.5-0.3,1.1-0.1,1.7
		c0.2,0.6,0.5,1,1.1,1.3c0.5,0.3,1.1,0.3,1.7,0.1c0.6-0.2,1.1-0.6,1.3-1.1c0.3-0.5,0.3-1.1,0.1-1.6c-0.2-0.6-0.5-1-1.1-1.3
		C80.1,28.2,79.6,28.2,79,28.4z M88.6,38.4L84,24l1.8-0.6l4.6,14.4L88.6,38.4z"/>
	<path class="st6" d="M130.2,25.8c-1.3,3.3-4.3,5.3-8.8,6.2l-0.9-1.9c1.5-0.1,2.8-0.4,4.1-1c1.2-0.6,2.2-1.4,2.9-2.4l-4.7-1.4
		l0.5-1.6L130.2,25.8z M126,39.4c-1.5-0.4-2.6-1.1-3.2-1.9c-0.7-0.8-0.9-1.6-0.6-2.5c0.3-0.9,0.9-1.5,1.9-1.8c1-0.3,2.3-0.3,3.7,0.2
		c1.5,0.4,2.6,1.1,3.3,1.9c0.7,0.8,0.9,1.7,0.6,2.5c-0.3,0.9-0.9,1.5-1.9,1.8C128.8,39.9,127.5,39.8,126,39.4z M127.3,34.9
		c-1-0.3-1.7-0.4-2.3-0.2c-0.6,0.1-0.9,0.4-1,0.8c-0.1,0.4,0,0.9,0.4,1.3c0.4,0.4,1.1,0.8,2,1c0.9,0.3,1.7,0.4,2.3,0.2
		c0.6-0.1,0.9-0.4,1-0.8c0.1-0.4,0-0.9-0.4-1.3C129,35.5,128.3,35.2,127.3,34.9z M127.8,31.6l0.4-1.5l3.2,0.9l0.4-1.5l-2.8-0.8
		l0.4-1.5l2.8,0.8l0.7-2.3l1.8,0.5l-2.4,8.3l-1.8-0.5l0.4-1.5L127.8,31.6z"/>
	<path class="st6" d="M144,32.1c-0.5,0.8-1,1.4-1.4,1.9l1.4,0.8l1.6-2.9l1.7,0.9l-6.7,12.6l-1.7-0.9l2.5-4.7l-2.6-1.4l0.8-1.4
		l2.6,1.4l1.1-2.1l-1.8-1c-0.9,0.8-2,1.6-3.4,2.3c-1.4,0.7-2.6,1.1-3.6,1.3l-0.9-1.9c1.1,0,2.4-0.4,3.9-1.2c1.5-0.8,2.8-1.8,3.9-3.2
		l-3.5-1.9l0.8-1.4L144,32.1z M141.4,46.3l7.1-13.3l1.7,0.9l-7.1,13.3L141.4,46.3z"/>
	<path class="st7" d="M163.9,68.1l4.9-2.7l4.7,8.5l-4.9,2.7L163.9,68.1z M171.1,73l-2.8-5.2l-2,1.1l2.8,5.2L171.1,73z M172.2,69.4
		c-0.1-1.7,0.2-3.2,0.9-4.4c-0.5,0-1.3-0.1-2.3-0.4c-1-0.3-1.7-0.6-2.3-1l0.5-1.9c1,0.7,2,1.2,3.1,1.4c1.1,0.2,2.1,0,2.9-0.4
		l1.6-0.9l0.9,1.7l-1.6,0.9c-0.8,0.5-1.4,1.2-1.8,2.2c-0.4,1-0.4,2.1-0.2,3.1L172.2,69.4z M173.1,71.9l7.5-4.1l0.9,1.7l-7.5,4.1
		L173.1,71.9z"/>
	<path class="st7" d="M171.9,87.6l3.9-1.2l-2.3-7.6l1.6-0.5l2.9,9.4l-5.4,1.7L171.9,87.6z M185.1,81.5c-1.9,0.4-3.7,0.2-5.4-0.5
		c-1.7-0.8-3.2-2-4.5-3.6l1.1-1.7c1.9,2.6,4.1,4,6.5,4l-1.4-4.6l1.6-0.5L185.1,81.5z M181.8,86.6l-3,0.9l-0.6-1.9l8.2-2.5l0.6,1.9
		l-3.5,1.1l0.7,2.2l-1.6,0.5L181.8,86.6z"/>
</g>
<g>
	<g>
		<path class="st0" d="M48.2,93.6l0.1-0.7c0.1-0.4,0-0.8-0.1-1.1c-0.2-0.3-0.4-0.5-0.8-0.5c-0.8-0.2-1.3,0.1-1.5,1
			c-0.1,0.4,0,0.7,0.1,1c0.2,0.3,0.4,0.4,0.8,0.5l-0.2,0.9c-0.6-0.1-1-0.4-1.2-0.9c-0.3-0.5-0.4-1-0.2-1.7c0.1-0.7,0.4-1.1,0.8-1.4
			s0.9-0.4,1.6-0.3c0.3,0.1,0.6,0.2,0.8,0.5c0.2,0.3,0.4,0.6,0.5,0.9c0.2-0.4,0.5-0.6,0.8-0.8c0.3-0.1,0.7-0.2,1.1-0.1
			c0.6,0.1,1.1,0.4,1.4,0.9c0.3,0.5,0.4,1.1,0.2,1.7c-0.1,0.7-0.4,1.1-0.9,1.5c-0.4,0.3-0.9,0.4-1.5,0.3l0.2-0.9
			c0.4,0.1,0.7,0,1-0.2c0.3-0.2,0.4-0.5,0.5-0.9c0.1-0.4,0-0.8-0.1-1.1c-0.2-0.3-0.5-0.5-0.9-0.5c-0.4-0.1-0.7,0-1,0.2
			c-0.3,0.2-0.5,0.5-0.6,1l-0.1,0.7L48.2,93.6z"/>
		<path class="st0" d="M51.3,85.6c1,0.3,1.7,0.7,2.1,1.2c0.4,0.5,0.5,1.1,0.2,1.8c-0.2,0.7-0.6,1.2-1.2,1.4
			c-0.6,0.2-1.4,0.2-2.3-0.1L49,89.6c-1-0.3-1.7-0.7-2.1-1.2c-0.4-0.5-0.5-1.1-0.2-1.8c0.2-0.7,0.6-1.2,1.2-1.4
			c0.6-0.2,1.4-0.2,2.3,0.1L51.3,85.6z M49.9,86.1c-0.7-0.2-1.3-0.3-1.7-0.2c-0.4,0.1-0.7,0.4-0.8,0.8c-0.1,0.4-0.1,0.8,0.2,1.1
			s0.8,0.6,1.4,0.8l1.4,0.4c0.7,0.2,1.3,0.3,1.7,0.2c0.4-0.1,0.7-0.4,0.8-0.8c0.1-0.4,0.1-0.8-0.2-1.1c-0.3-0.3-0.8-0.6-1.5-0.8
			L49.9,86.1z"/>
		<path class="st0" d="M52.7,83.2l-0.9,2.2l-0.7-0.3l0.9-2.2L52.7,83.2z"/>
		<path class="st0" d="M54.7,79.4l0.4-0.9l0.7,0.3l-0.4,0.9l1.5,0.7l-0.4,0.8L55,80.5l-1.4,2.9l-0.5-0.2l-3.1-5l0.4-0.9L54.7,79.4z
			 M53.4,82.2l0.9-2l-3.2-1.5l0.1,0.2L53.4,82.2z"/>
		<path class="st0" d="M54.5,77.1L51.7,75l1.8-3.2l0.7,0.4l-1.4,2.5l1.6,1.2c0-0.4,0.1-0.8,0.3-1.2c0.3-0.6,0.8-0.9,1.3-1
			s1.2,0,1.8,0.4c0.6,0.4,1,0.8,1.2,1.4c0.2,0.6,0.1,1.1-0.3,1.8c-0.3,0.5-0.7,0.9-1.2,1.1s-1,0.1-1.6-0.1l0.4-0.7
			c0.4,0.2,0.7,0.2,1,0.1c0.3-0.1,0.5-0.3,0.7-0.6c0.2-0.4,0.3-0.7,0.1-1.1c-0.1-0.4-0.4-0.7-0.8-0.9c-0.4-0.2-0.8-0.3-1.2-0.2
			c-0.4,0.1-0.7,0.3-0.9,0.7C55.1,75.7,55,76,55,76.3l0,0.3L54.5,77.1z"/>
		<path class="st5" d="M76.9,55.5l0.8-0.5l0.4,0.6l-0.8,0.5l0.9,1.4L77.4,58l-0.9-1.4l-2.7,1.7l-0.3-0.5l0.1-5.9l0.8-0.5L76.9,55.5z
			 M74.3,57.2l1.9-1.2l-1.8-3l0,0.2L74.3,57.2z"/>
		<path class="st5" d="M78,53.5l-1.3-3.3l3.3-1.6l0.4,0.7l-2.6,1.3l0.7,1.8c0.2-0.3,0.5-0.6,0.9-0.8c0.6-0.3,1.1-0.3,1.7-0.1
			c0.5,0.2,1,0.6,1.3,1.3c0.3,0.7,0.4,1.3,0.2,1.8c-0.2,0.6-0.6,1-1.2,1.3c-0.6,0.3-1.1,0.4-1.6,0.2c-0.5-0.1-0.9-0.5-1.3-1l0.8-0.4
			c0.2,0.3,0.5,0.5,0.8,0.6c0.3,0.1,0.6,0,1-0.1c0.4-0.2,0.6-0.5,0.7-0.8s0-0.8-0.2-1.2c-0.2-0.4-0.5-0.7-0.9-0.9
			c-0.4-0.1-0.7-0.1-1.1,0.1c-0.4,0.2-0.6,0.4-0.7,0.6l-0.1,0.3L78,53.5z"/>
		<path class="st5" d="M84.6,51.5l-2.2,0.9l-0.3-0.7l2.2-0.9L84.6,51.5z"/>
		<path class="st5" d="M87,45.9l0.2,0.7L87,46.7c-0.7,0.2-1.1,0.6-1.4,1.1c-0.3,0.5-0.3,1.1-0.1,1.8c0.2-0.5,0.6-0.9,1.2-1.1
			c0.6-0.2,1.1-0.2,1.6,0.1c0.5,0.3,0.8,0.8,1.1,1.4c0.2,0.7,0.2,1.3,0,1.9c-0.2,0.5-0.7,0.9-1.3,1.1c-0.6,0.2-1.3,0.2-1.8-0.2
			c-0.6-0.4-1-0.9-1.3-1.7L85,50.9c-0.4-1.2-0.5-2.3-0.2-3.1c0.3-0.8,1-1.4,2-1.8L87,45.9z M86.9,49.3c-0.3,0.1-0.5,0.3-0.7,0.5
			c-0.2,0.3-0.3,0.5-0.3,0.8L86,51c0.2,0.6,0.5,1,0.8,1.2c0.4,0.3,0.7,0.3,1.1,0.2c0.4-0.1,0.6-0.4,0.8-0.7c0.1-0.4,0.1-0.8-0.1-1.2
			c-0.2-0.5-0.4-0.8-0.7-1C87.6,49.3,87.2,49.2,86.9,49.3z"/>
		<path class="st5" d="M94.3,48.2c0.3,1,0.3,1.8,0,2.4c-0.2,0.6-0.7,1-1.5,1.2c-0.7,0.2-1.3,0.1-1.8-0.3c-0.5-0.4-0.8-1.1-1.1-2.1
			l-0.3-1.2c-0.2-1-0.3-1.8,0-2.4c0.2-0.6,0.7-1,1.5-1.1c0.7-0.2,1.3-0.1,1.8,0.3c0.5,0.4,0.8,1.1,1.1,2.1L94.3,48.2z M93.1,47.2
			c-0.2-0.7-0.4-1.3-0.7-1.5c-0.3-0.3-0.7-0.4-1.1-0.3c-0.4,0.1-0.7,0.4-0.9,0.7c-0.1,0.4-0.1,0.9,0.1,1.6l0.3,1.4
			c0.2,0.7,0.4,1.3,0.7,1.6c0.3,0.3,0.7,0.4,1.1,0.3c0.4-0.1,0.7-0.4,0.8-0.7c0.1-0.4,0.1-0.9-0.1-1.7L93.1,47.2z"/>
		<path class="st6" d="M121.7,45.1l-0.2,0.7l-0.2,0c-0.7-0.2-1.3-0.1-1.8,0.2c-0.5,0.3-0.9,0.8-1.1,1.5c0.5-0.3,1-0.4,1.6-0.3
			c0.6,0.1,1,0.5,1.3,1s0.3,1.1,0.1,1.8c-0.2,0.7-0.5,1.2-1,1.6c-0.5,0.3-1.1,0.4-1.7,0.3c-0.7-0.2-1.1-0.5-1.4-1.2
			c-0.3-0.6-0.3-1.3-0.1-2.1l0.1-0.3c0.3-1.3,0.8-2.2,1.5-2.7c0.7-0.5,1.6-0.7,2.7-0.4L121.7,45.1z M119.8,47.9
			c-0.3-0.1-0.6-0.1-0.9,0.1s-0.5,0.3-0.7,0.5l-0.1,0.3c-0.1,0.6-0.1,1.1,0,1.5c0.2,0.4,0.4,0.7,0.8,0.8c0.4,0.1,0.7,0,1-0.2
			c0.3-0.2,0.5-0.6,0.6-1.1c0.1-0.5,0.1-0.9-0.1-1.2C120.4,48.2,120.2,48,119.8,47.9z"/>
		<path class="st6" d="M126.7,51c-0.3,1-0.8,1.7-1.3,2.1c-0.5,0.4-1.1,0.4-1.9,0.2c-0.7-0.2-1.2-0.7-1.3-1.3
			c-0.2-0.6-0.1-1.4,0.2-2.3l0.4-1.1c0.3-1,0.8-1.7,1.3-2c0.5-0.4,1.1-0.4,1.9-0.2c0.7,0.2,1.2,0.7,1.4,1.2s0.1,1.4-0.2,2.3
			L126.7,51z M126.2,49.5c0.2-0.7,0.3-1.3,0.2-1.7c-0.1-0.4-0.4-0.7-0.8-0.8c-0.4-0.2-0.8-0.1-1.1,0.2c-0.3,0.3-0.6,0.7-0.8,1.4
			l-0.5,1.4c-0.3,0.7-0.3,1.3-0.2,1.7c0.1,0.4,0.4,0.7,0.8,0.9c0.4,0.1,0.8,0.1,1.1-0.2c0.3-0.3,0.6-0.7,0.9-1.4L126.2,49.5z"/>
		<path class="st6" d="M129.1,52.4l-2.2-0.9l0.3-0.7l2.2,0.9L129.1,52.4z"/>
		<path class="st6" d="M135.4,51.1l-5.6,4.6l-0.8-0.4l5.5-4.4l-3.4-1.7l0.3-0.7l4.3,2.2L135.4,51.1z"/>
		<path class="st6" d="M135.1,54.4l2.2-2.8l3.1,1.9l-0.4,0.7l-2.4-1.5l-1.2,1.5c0.4,0,0.8,0.1,1.2,0.4c0.5,0.3,0.9,0.8,1,1.4
			c0.1,0.6,0,1.2-0.4,1.8c-0.4,0.6-0.9,1-1.4,1.2c-0.6,0.1-1.1,0-1.7-0.3c-0.5-0.3-0.9-0.8-1-1.3c-0.2-0.5-0.1-1,0.2-1.6l0.7,0.5
			c-0.2,0.4-0.2,0.7-0.1,1c0.1,0.3,0.3,0.6,0.6,0.8c0.4,0.2,0.7,0.3,1.1,0.2c0.4-0.1,0.7-0.4,0.9-0.8c0.3-0.4,0.3-0.8,0.3-1.2
			c-0.1-0.4-0.3-0.7-0.6-0.9c-0.3-0.2-0.6-0.3-0.9-0.3l-0.3,0L135.1,54.4z"/>
		<path class="st7" d="M158.1,72.8l-7.1,1.2l-0.5-0.8l6.9-1.1l-2.1-3.2l0.6-0.4l2.7,4L158.1,72.8z"/>
		<path class="st7" d="M156.1,75.5l3.3-1.4l1.7,3.2l-0.7,0.4l-1.4-2.5l-1.8,0.7c0.3,0.2,0.6,0.5,0.8,0.9c0.3,0.6,0.4,1.1,0.2,1.7
			c-0.2,0.5-0.6,1-1.3,1.3c-0.6,0.3-1.2,0.4-1.8,0.3c-0.6-0.1-1-0.5-1.3-1.2c-0.3-0.6-0.4-1.1-0.3-1.6c0.1-0.5,0.4-0.9,1-1.3
			l0.4,0.8c-0.3,0.2-0.5,0.5-0.6,0.8c-0.1,0.3,0,0.6,0.2,1c0.2,0.4,0.5,0.6,0.8,0.7c0.4,0.1,0.8,0,1.2-0.2c0.4-0.2,0.7-0.5,0.8-0.9
			c0.1-0.4,0.1-0.7-0.1-1.1c-0.2-0.3-0.4-0.6-0.7-0.7l-0.3-0.1L156.1,75.5z"/>
		<path class="st7" d="M158.4,82.1l-1-2.2l0.7-0.3l1,2.2L158.4,82.1z"/>
		<path class="st7" d="M157.1,86.2l-0.3-0.9l5.6-2.1l-1.3-1.5l0.8-0.3l1.8,2.1l0,0.1L157.1,86.2z"/>
		<path class="st7" d="M162,91.6c-1,0.3-1.8,0.3-2.4,0.1c-0.6-0.2-1-0.7-1.2-1.4c-0.2-0.7-0.1-1.3,0.3-1.8c0.4-0.5,1.1-0.9,2-1.2
			l1.2-0.3c1-0.3,1.8-0.3,2.4-0.1s1,0.7,1.2,1.4c0.2,0.7,0.1,1.3-0.2,1.8s-1,0.9-2,1.2L162,91.6z M162.9,90.4
			c0.7-0.2,1.2-0.5,1.5-0.8c0.3-0.3,0.4-0.7,0.2-1.1c-0.1-0.4-0.4-0.7-0.8-0.8c-0.4-0.1-0.9-0.1-1.6,0.1l-1.4,0.4
			c-0.7,0.2-1.3,0.5-1.5,0.8c-0.3,0.3-0.4,0.7-0.2,1.1c0.1,0.4,0.4,0.7,0.8,0.8c0.4,0.1,0.9,0.1,1.7-0.1L162.9,90.4z"/>
		<path class="st7" d="M162.9,96.9c-1,0.2-1.8,0.1-2.4-0.1c-0.6-0.3-0.9-0.8-1.1-1.5c-0.1-0.7,0-1.3,0.4-1.8c0.4-0.4,1.1-0.8,2.1-1
			l1.2-0.2c1-0.2,1.8-0.1,2.4,0.1c0.6,0.3,0.9,0.8,1,1.5c0.1,0.8,0,1.4-0.4,1.8c-0.4,0.4-1.1,0.8-2.1,0.9L162.9,96.9z M164,95.8
			c0.8-0.1,1.3-0.3,1.6-0.6c0.3-0.3,0.4-0.6,0.3-1.1c-0.1-0.5-0.3-0.8-0.7-0.9c-0.4-0.1-0.9-0.2-1.6,0l-1.4,0.3
			c-0.8,0.1-1.3,0.3-1.6,0.6c-0.3,0.3-0.4,0.6-0.4,1.1c0.1,0.4,0.3,0.7,0.7,0.9c0.4,0.2,0.9,0.2,1.7,0L164,95.8z"/>
	</g>
</g>
</svg>
