<?xml version="1.0" encoding="UTF-8"?>
<svg id="_레이어_1" data-name="레이어 1" xmlns="http://www.w3.org/2000/svg" viewBox="0 0 281 150">
  <defs>
    <style>
      .cls-1 {
        fill: #f0a54c;
      }

      .cls-1, .cls-2, .cls-3, .cls-4, .cls-5, .cls-6, .cls-7, .cls-8 {
        stroke-width: 0px;
      }

      .cls-2 {
        fill: #da3934;
      }

      .cls-3 {
        fill: #62b1e3;
      }

      .cls-4 {
        fill: #ed9027;
      }

      .cls-5 {
        fill: #fff;
      }

      .cls-6 {
        fill: #ffb700;
      }

      .cls-7 {
        fill: #1a8df1;
      }

      .cls-8 {
        fill: #ffd466;
      }
    </style>
  </defs>
  <g>
    <path class="cls-2" d="M177.31,107.56c9.28,9.35,15.01,22.22,15.01,36.44h86.18c0-38.02-15.38-72.45-40.26-97.41l-60.94,60.98Z"/>
    <path class="cls-4" d="M177.31,107.56l60.94-60.98c-24.98-25.07-59.55-40.59-97.74-40.59l.08,86.26c14.36,0,27.35,5.86,36.72,15.3Z"/>
    <path class="cls-7" d="M103.85,107.56l-61.09-60.98C17.88,71.55,2.5,105.98,2.5,144h86.34c0-14.21,5.73-27.09,15.01-36.44Z"/>
    <path class="cls-6" d="M42.76,46.59l61.09,60.98c9.37-9.45,22.36-15.3,36.72-15.3l-.08-86.26c-38.19,0-72.75,15.52-97.74,40.59Z"/>
  </g>
  <g>
    <path class="cls-3" d="M29.76,108.37c2.88.86,5.3,1.71,7.25,2.56l-1.02,2.52c-1.38-.58-2.98-1.16-4.8-1.75l-2.34,7.85-2.24-.66,3.13-10.52ZM39.06,105.87l6.05,1.8-.79,2.67-14.99-4.46.79-2.67,6.69,1.99.9-3.02,2.26.67-.9,3.02ZM40.86,110.04c-1.01,4.28-2.23,8.84-3.67,13.67l-2.31-.4c.57-1.9.99-3.39,1.29-4.48l-4.06-1.21.79-2.67,4.04,1.2c.85-3.11,1.42-5.31,1.7-6.6l2.22.49ZM45.74,122.95l-6.52-1.94.79-2.67,4.28,1.27,3.41-11.46,2.24.67-4.21,14.14Z"/>
    <path class="cls-3" d="M47.98,92.34c-1.97,1.45-3.93,2.24-5.86,2.38.46.62.89,1.62,1.29,2.98.4,1.36.6,2.51.6,3.42l-2.7.83c.12-1.73-.14-3.32-.78-4.78s-1.56-2.5-2.74-3.14l-2.34-1.25,1.31-2.46,2.26,1.21c1.19.64,2.52.78,4,.43,1.48-.35,2.76-1.1,3.85-2.23l1.11,2.6ZM50.22,89.32l-10.64-5.7,1.28-2.4,10.64,5.7-1.28,2.4ZM52.77,103.21l-6.97-3.73,6.5-12.13,6.97,3.73-6.5,12.13ZM53.06,90.82l-3.94,7.36,2.89,1.55,3.94-7.36-2.89-1.55Z"/>
    <path class="cls-3" d="M59.86,128.29l.2-.94c.12-.59.06-1.09-.17-1.49-.23-.4-.6-.66-1.12-.76-1.15-.24-1.85.21-2.09,1.36-.11.54-.05,1.01.19,1.39.24.39.62.63,1.13.74l-.26,1.25c-.78-.16-1.37-.59-1.76-1.26-.4-.68-.5-1.46-.32-2.34.2-.93.59-1.61,1.2-2.03s1.34-.54,2.22-.36c.43.09.81.32,1.16.68.34.36.56.8.66,1.32.28-.51.66-.86,1.12-1.08.46-.21.97-.26,1.55-.14.88.19,1.52.62,1.92,1.31.4.69.5,1.49.3,2.41-.19.92-.6,1.62-1.22,2.1-.62.47-1.34.62-2.16.45l.26-1.26c.52.11.97.03,1.35-.25.38-.27.63-.69.75-1.26.13-.6.07-1.1-.18-1.49-.25-.39-.67-.64-1.26-.77-.57-.12-1.05-.04-1.43.25-.38.29-.64.76-.79,1.42l-.2.94-1.02-.21Z"/>
    <path class="cls-3" d="M64.28,117.02c1.43.44,2.42,1.01,2.96,1.72.54.7.66,1.57.34,2.61-.32,1.03-.89,1.68-1.72,1.96-.83.28-1.93.22-3.28-.17l-1.63-.5c-1.41-.44-2.39-1-2.92-1.7-.54-.7-.64-1.57-.32-2.62.32-1.03.89-1.69,1.7-1.98.81-.28,1.91-.22,3.3.19l1.58.49ZM62.23,117.72c-1.03-.32-1.83-.41-2.4-.26-.56.15-.94.53-1.14,1.16-.19.62-.1,1.15.28,1.58s1.06.8,2.04,1.11l1.95.6c1.04.32,1.85.41,2.44.26.59-.15.98-.53,1.17-1.14.19-.6.09-1.12-.29-1.56-.38-.44-1.06-.82-2.06-1.14l-2-.62Z"/>
    <path class="cls-3" d="M66.23,113.52l-1.21,3.15-.97-.37,1.21-3.15.97.37Z"/>
    <path class="cls-3" d="M69.05,108.15l.59-1.27.95.44-.59,1.27,2.12.98-.54,1.17-2.12-.98-1.92,4.16-.68-.32-4.43-7.02.57-1.24,6.06,2.81ZM67.19,112.15l1.31-2.84-4.48-2.07.19.25,2.98,4.66Z"/>
    <path class="cls-3" d="M68.81,104.97l-4.08-2.96,2.58-4.46,1.02.59-2.04,3.52,2.22,1.64c0-.57.15-1.13.47-1.67.46-.79,1.09-1.27,1.88-1.43s1.64.02,2.53.53c.9.52,1.46,1.17,1.7,1.96.24.78.1,1.61-.4,2.48-.45.77-1.02,1.27-1.73,1.51s-1.46.17-2.25-.19l.61-1.05c.54.22,1.02.26,1.44.12.42-.14.77-.45,1.04-.92.3-.51.36-1.02.18-1.52-.18-.5-.58-.92-1.2-1.28-.58-.34-1.14-.45-1.68-.34-.54.11-.96.43-1.26.96-.28.48-.39.92-.34,1.32l.07.43-.74.75Z"/>
  </g>
  <g>
    <path class="cls-8" d="M94.54,45.49c-3.24,1.07-6.15,1.17-8.73.3-.13,1.03-.65,2.26-1.56,3.7s-1.95,2.63-3.12,3.59l-2.51-1.04c1.51-.99,2.72-2.19,3.61-3.6.89-1.4,1.27-2.67,1.14-3.82l-5.33,3-1.14-2.03,13.47-7.57,1.14,2.03-5.39,3.03c.83.68,2.04.99,3.64.95,1.6-.04,3.28-.43,5.05-1.17l-.27,2.63ZM90.85,51.85l4.04,7.18-2.43,1.37-4.04-7.18-7.4,4.16-1.14-2.03,17.25-9.7,1.14,2.03-7.42,4.17Z"/>
    <path class="cls-8" d="M105.88,44c-1.59.51-3.08.46-4.46-.14-1.38-.6-2.31-1.66-2.79-3.17-.49-1.52-.33-2.94.47-4.24.8-1.3,2.01-2.21,3.63-2.73,1.61-.51,3.09-.46,4.44.15,1.35.61,2.27,1.68,2.76,3.2.48,1.5.33,2.9-.46,4.2-.79,1.29-1.98,2.2-3.59,2.71ZM100.86,51.64l-.98-2.13c6.43-2.05,11.22-3.69,14.35-4.92l.84,2.13c-4.38,1.65-9.12,3.29-14.21,4.92ZM103.36,35.99c-.89.29-1.52.79-1.89,1.51-.37.72-.41,1.5-.15,2.34.26.83.76,1.43,1.49,1.79.73.37,1.52.41,2.39.14.88-.28,1.5-.78,1.87-1.51.37-.72.42-1.49.16-2.31-.26-.82-.76-1.42-1.49-1.81-.73-.38-1.53-.44-2.39-.16ZM117.03,50.18l-6.48-20.32,2.61-.83,6.48,20.32-2.61.83Z"/>
    <path class="cls-8" d="M100.5,74.41l1.18-.74.55.89-1.18.74,1.24,1.98-1.09.68-1.24-1.98-3.89,2.42-.4-.64.13-8.3,1.15-.72,3.54,5.67ZM96.75,76.75l2.66-1.66-2.61-4.19.02.32-.06,5.53Z"/>
    <path class="cls-8" d="M102.06,71.62l-1.79-4.71,4.61-2.31.53,1.06-3.64,1.82.96,2.59c.31-.48.75-.86,1.31-1.14.82-.41,1.61-.47,2.36-.17.75.3,1.36.91,1.82,1.83.46.93.58,1.78.35,2.57-.23.78-.8,1.4-1.7,1.85-.79.4-1.55.5-2.28.31-.72-.19-1.32-.66-1.78-1.4l1.08-.54c.33.48.71.78,1.13.89.43.11.88.05,1.37-.2.53-.27.86-.66.98-1.17s.02-1.09-.3-1.73c-.3-.6-.71-1-1.22-1.2-.51-.2-1.04-.16-1.58.11-.5.25-.83.55-1.01.92l-.18.4-1.03.22Z"/>
    <path class="cls-8" d="M111.39,68.71l-3.11,1.31-.4-.96,3.11-1.31.4.96Z"/>
    <path class="cls-8" d="M114.68,60.84l.35,1.03-.22.08c-.94.34-1.59.88-1.96,1.61-.37.73-.43,1.6-.18,2.61.3-.75.89-1.27,1.76-1.57.83-.28,1.59-.22,2.28.2.69.41,1.2,1.08,1.52,2.01.34.98.34,1.86,0,2.63-.33.77-.95,1.31-1.84,1.62-.91.31-1.77.22-2.58-.29-.81-.51-1.4-1.31-1.78-2.41l-.16-.46c-.6-1.75-.69-3.22-.26-4.4.43-1.18,1.38-2.04,2.85-2.57l.22-.07ZM114.56,65.67c-.41.14-.75.4-1.02.76-.26.37-.4.76-.41,1.18l.15.44c.27.78.66,1.35,1.18,1.71.52.36,1.04.45,1.57.27.54-.19.9-.53,1.08-1.04.17-.51.15-1.09-.07-1.74-.22-.65-.56-1.13-1.02-1.42-.45-.3-.94-.35-1.47-.17Z"/>
    <path class="cls-8" d="M125.08,64.04c.35,1.45.37,2.6.05,3.42-.32.83-1.01,1.37-2.07,1.63-1.04.25-1.9.1-2.57-.47-.67-.57-1.18-1.54-1.53-2.91l-.4-1.66c-.35-1.44-.36-2.56-.04-3.38.33-.82,1.02-1.36,2.08-1.62,1.05-.26,1.91-.11,2.57.44.66.55,1.17,1.53,1.53,2.93l.39,1.61ZM123.42,62.65c-.26-1.05-.59-1.78-1-2.19-.41-.41-.94-.53-1.58-.38-.64.16-1.04.51-1.21,1.06-.17.55-.14,1.32.09,2.32l.48,1.99c.26,1.06.6,1.8,1.03,2.23.43.43.96.57,1.58.42.61-.15,1.01-.5,1.19-1.04.18-.55.16-1.33-.08-2.36l-.5-2.03Z"/>
  </g>
  <g>
    <path class="cls-1" d="M175.83,32.34c-1.89,4.63-6.05,7.55-12.49,8.76l-1.32-2.66c2.07-.12,3.99-.59,5.76-1.43,1.77-.83,3.16-1.96,4.17-3.39l-6.61-1.95.66-2.24,9.84,2.9ZM169.96,51.58c-2.11-.62-3.65-1.5-4.6-2.64-.95-1.14-1.24-2.33-.87-3.59.37-1.25,1.26-2.1,2.69-2.55,1.42-.44,3.19-.36,5.29.26,2.11.62,3.65,1.51,4.61,2.66.96,1.15,1.26,2.35.89,3.59-.37,1.26-1.27,2.11-2.69,2.54-1.42.44-3.2.34-5.32-.28ZM171.82,45.26c-1.35-.4-2.42-.51-3.2-.32-.78.19-1.26.58-1.44,1.2-.18.61,0,1.21.57,1.79.56.58,1.51,1.06,2.85,1.46,1.34.4,2.41.51,3.2.33.79-.17,1.28-.57,1.46-1.19.18-.61-.01-1.2-.57-1.79-.56-.58-1.52-1.08-2.88-1.48ZM172.44,40.62l.62-2.12,4.52,1.33.63-2.15-3.93-1.16.63-2.15,3.93,1.16.94-3.19,2.61.77-3.45,11.71-2.61-.77.62-2.09-4.52-1.33Z"/>
    <path class="cls-1" d="M195.44,41.24c-.75,1.12-1.43,2.02-2.03,2.71l2.04,1.09,2.21-4.16,2.42,1.29-9.52,17.89-2.42-1.29,3.54-6.66-3.64-1.94,1.09-2.04,3.64,1.94,1.59-3-2.62-1.39c-1.21,1.19-2.79,2.27-4.75,3.25-1.96.98-3.65,1.6-5.09,1.85l-1.24-2.64c1.51-.05,3.35-.62,5.51-1.7,2.16-1.08,4.01-2.6,5.56-4.56l-5-2.66,1.09-2.04,7.61,4.05ZM191.74,61.39l10.02-18.83,2.43,1.29-10.02,18.83-2.43-1.29Z"/>
    <path class="cls-1" d="M163.83,59.63l-.26,1.05-.23-.06c-.97-.22-1.81-.12-2.52.29-.71.41-1.23,1.11-1.57,2.1.66-.46,1.43-.59,2.32-.37.85.21,1.46.67,1.82,1.4s.43,1.56.19,2.51c-.25,1.01-.72,1.75-1.41,2.22-.7.47-1.5.59-2.43.37-.94-.23-1.61-.77-2.01-1.63-.41-.86-.47-1.86-.19-2.99l.12-.48c.44-1.8,1.16-3.08,2.16-3.84,1-.76,2.26-.97,3.78-.62l.22.05ZM161.12,63.63c-.42-.1-.85-.07-1.27.1s-.75.43-.98.78l-.11.46c-.2.8-.17,1.5.07,2.08.24.58.63.94,1.17,1.07.56.14,1.05.04,1.47-.29.42-.33.71-.83.88-1.5.16-.67.13-1.25-.09-1.75-.22-.49-.6-.81-1.14-.94Z"/>
    <path class="cls-1" d="M170.85,67.95c-.49,1.42-1.09,2.38-1.81,2.9-.72.52-1.6.6-2.62.25-1.01-.35-1.65-.95-1.9-1.79-.26-.84-.16-1.93.28-3.28l.56-1.61c.48-1.4,1.08-2.35,1.8-2.87.72-.51,1.59-.59,2.62-.23,1.02.35,1.66.94,1.92,1.76s.16,1.92-.3,3.29l-.54,1.57ZM170.21,65.88c.35-1.02.47-1.82.34-2.39-.13-.57-.5-.96-1.12-1.17-.62-.21-1.15-.14-1.59.23-.44.37-.84,1.03-1.18,2l-.67,1.93c-.35,1.03-.47,1.84-.34,2.43.13.59.5.99,1.1,1.2.6.21,1.12.13,1.57-.23.45-.36.85-1.04,1.21-2.02l.68-1.98Z"/>
    <path class="cls-1" d="M174.31,70.03l-3.11-1.31.41-.96,3.11,1.31-.41.96Z"/>
    <path class="cls-1" d="M183.28,68.4l-8.24,6.06-1.17-.66,8.07-5.78-4.73-2.69.52-.91,5.91,3.36-.36.62Z"/>
    <path class="cls-1" d="M182.73,72.87l3.09-3.99,4.37,2.73-.63,1-3.45-2.16-1.71,2.17c.57.02,1.12.19,1.65.52.78.49,1.23,1.13,1.37,1.93.14.8-.07,1.64-.61,2.51-.55.88-1.22,1.42-2.01,1.63-.79.21-1.61.05-2.46-.48-.75-.47-1.24-1.06-1.45-1.78-.22-.72-.13-1.46.27-2.24l1.03.64c-.24.53-.29,1.01-.17,1.43.13.42.42.78.88,1.07.5.32,1.01.39,1.51.23.5-.16.94-.55,1.32-1.16.36-.57.49-1.12.39-1.67-.09-.54-.4-.97-.92-1.29-.47-.3-.91-.42-1.31-.38l-.43.05-.73-.76Z"/>
  </g>
  <g>
    <path class="cls-5" d="M223.54,92.19l6.93-3.8,6.62,12.07-6.93,3.8-6.62-12.07ZM233.76,99.2l-4.01-7.32-2.88,1.58,4.01,7.32,2.88-1.58ZM235.26,94.12c-.14-2.45.26-4.52,1.21-6.21-.77.05-1.84-.14-3.2-.55-1.36-.41-2.43-.87-3.2-1.37l.78-2.72c1.38,1.05,2.86,1.7,4.43,1.96,1.57.25,2.95.06,4.12-.59l2.33-1.27,1.34,2.44-2.25,1.23c-1.18.65-2.03,1.69-2.54,3.11-.51,1.43-.59,2.91-.23,4.45l-2.79-.49ZM236.56,97.64l10.58-5.8,1.31,2.38-10.58,5.8-1.31-2.39Z"/>
    <path class="cls-5" d="M234.86,119.83l5.45-1.68-3.3-10.74,2.23-.69,4.11,13.37-7.68,2.36-.81-2.63ZM253.52,111.14c-2.67.56-5.2.3-7.6-.77-2.4-1.08-4.51-2.78-6.34-5.11l1.5-2.38c2.68,3.73,5.75,5.63,9.21,5.69l-2.02-6.57,2.23-.69,3.02,9.83ZM248.82,118.42l-4.31,1.33-.82-2.65,11.54-3.55.81,2.65-5,1.54.95,3.1-2.23.69-.95-3.1Z"/>
    <path class="cls-5" d="M215.31,98.89l-10.09,1.7-.74-1.12,9.8-1.53-3.01-4.54.87-.58,3.76,5.66-.6.4Z"/>
    <path class="cls-5" d="M212.58,102.76l4.66-1.92,2.44,4.54-1.04.56-1.93-3.58-2.56,1.03c.49.3.88.72,1.18,1.27.43.81.51,1.59.23,2.35-.28.76-.87,1.39-1.78,1.87-.91.49-1.76.63-2.56.42-.79-.21-1.42-.76-1.9-1.64-.42-.78-.55-1.54-.38-2.27.17-.73.62-1.33,1.35-1.81l.57,1.06c-.47.34-.76.73-.86,1.16-.1.43-.02.89.23,1.36.28.52.68.84,1.2.95.52.11,1.09-.01,1.72-.35.59-.32.98-.74,1.17-1.25.19-.52.13-1.04-.15-1.58-.26-.49-.58-.82-.94-.98l-.4-.17-.25-1.03Z"/>
    <path class="cls-5" d="M215.75,112.01l-1.39-3.07.95-.43,1.39,3.07-.95.43Z"/>
    <path class="cls-5" d="M213.99,117.81l-.45-1.2,7.98-2.99-1.79-2.08,1.09-.41,2.57,2.95.07.19-9.46,3.55Z"/>
    <path class="cls-5" d="M220.81,125.44c-1.44.42-2.58.48-3.42.19-.84-.29-1.41-.96-1.71-2-.3-1.03-.18-1.89.36-2.59.54-.69,1.49-1.24,2.84-1.65l1.64-.47c1.42-.41,2.55-.47,3.38-.18s1.4.96,1.7,2.01c.3,1.04.19,1.9-.34,2.59s-1.48,1.23-2.87,1.65l-1.59.46ZM222.13,123.73c1.04-.3,1.76-.66,2.15-1.09.39-.43.5-.96.31-1.59-.18-.63-.55-1.02-1.11-1.17-.56-.15-1.33-.09-2.31.19l-1.97.57c-1.04.3-1.77.68-2.18,1.12-.41.45-.53.98-.35,1.59.17.61.54.99,1.09,1.15.55.16,1.34.1,2.35-.18l2.01-.58Z"/>
    <path class="cls-5" d="M222.17,132.96c-1.47.26-2.61.21-3.42-.17-.81-.38-1.3-1.1-1.49-2.17-.19-1.06.02-1.9.63-2.53.61-.63,1.61-1.08,3-1.35l1.68-.3c1.46-.26,2.58-.2,3.38.18.8.38,1.29,1.1,1.48,2.18.19,1.07-.01,1.91-.6,2.54-.59.62-1.6,1.07-3.02,1.34l-1.63.29ZM223.66,131.39c1.07-.19,1.82-.48,2.25-.86.43-.39.59-.9.48-1.55-.11-.64-.44-1.07-.98-1.28-.54-.21-1.31-.23-2.32-.06l-2.01.36c-1.07.19-1.83.49-2.29.89-.45.4-.63.92-.51,1.55.11.62.43,1.04.97,1.26.53.22,1.32.24,2.36.07l2.06-.37Z"/>
  </g>
  <polygon class="cls-5" points="186.33 132.38 180.98 120.05 199.73 119.25 186.33 132.38"/>
</svg>