<?xml version="1.0" standalone="no"?>
<!DOCTYPE svg PUBLIC "-//W3C//DTD SVG 20010904//EN"
 "http://www.w3.org/TR/2001/REC-SVG-20010904/DTD/svg10.dtd">
<svg version="1.0" xmlns="http://www.w3.org/2000/svg"
 width="159.000000pt" height="54.000000pt" viewBox="0 0 159.000000 54.000000"
 preserveAspectRatio="xMidYMid meet">

<g transform="translate(0.000000,54.000000) scale(0.100000,-0.100000)"
fill="#000000" stroke="none">
<path d="M610 415 c-17 -20 -5 -62 21 -70 11 -4 30 0 44 9 13 9 36 16 50 16
39 0 29 34 -10 38 -17 2 -34 8 -39 13 -15 14 -52 11 -66 -6z"/>
<path d="M180 397 c-95 -63 -99 -203 -8 -268 45 -33 132 -37 176 -9 38 24 49
45 32 64 -9 12 -17 11 -47 -10 -41 -28 -72 -30 -113 -9 -96 50 -72 187 35 202
32 4 48 0 77 -20 34 -24 37 -24 52 -8 18 20 12 32 -34 60 -49 29 -126 29 -170
-2z"/>
<path d="M1210 266 c0 -132 2 -156 15 -156 8 0 15 7 15 16 0 14 2 14 22 0 12
-9 42 -16 66 -16 37 0 50 6 78 34 28 28 34 42 34 76 0 34 -6 48 -34 76 -28 28
-41 34 -78 34 -24 0 -53 -7 -65 -15 -22 -15 -22 -15 -25 41 -2 35 -8 59 -15
62 -10 3 -13 -32 -13 -152z m177 20 c39 -34 39 -98 0 -132 -39 -33 -81 -31
-118 5 -20 20 -29 39 -29 61 0 22 9 41 29 61 37 36 79 38 118 5z"/>
<path d="M406 385 c9 -14 25 -25 35 -25 18 0 19 -9 19 -125 l0 -125 35 0 35 0
0 125 0 125 25 0 c20 0 25 5 25 25 0 25 0 25 -95 25 l-95 0 16 -25z"/>
<path d="M790 260 l0 -150 86 0 c76 0 85 2 74 15 -8 10 -31 15 -71 15 l-59 0
0 135 c0 113 -2 135 -15 135 -13 0 -15 -23 -15 -150z"/>
<path d="M980 301 c-33 -33 -45 -69 -36 -107 4 -15 20 -39 36 -55 23 -23 37
-29 72 -29 24 0 53 7 64 15 25 19 34 19 34 0 0 -8 5 -15 10 -15 6 0 10 43 10
110 0 67 -4 110 -10 110 -5 0 -10 -7 -10 -15 0 -19 -9 -19 -34 0 -11 8 -40 15
-64 15 -35 0 -49 -6 -72 -29z m114 -1 c15 -5 34 -25 43 -45 16 -33 16 -37 0
-70 -28 -58 -87 -71 -136 -29 -25 20 -31 34 -31 64 0 30 6 44 31 64 33 28 53
32 93 16z"/>
<path d="M610 215 l0 -105 30 0 30 0 0 105 0 105 -30 0 -30 0 0 -105z"/>
</g>
</svg>
