<?xml version="1.0" standalone="no"?>
<!DOCTYPE svg PUBLIC "-//W3C//DTD SVG 20010904//EN"
 "http://www.w3.org/TR/2001/REC-SVG-20010904/DTD/svg10.dtd">
<svg version="1.0" xmlns="http://www.w3.org/2000/svg"
 width="205.000000pt" height="70.000000pt" viewBox="0 0 205.000000 70.000000"
 preserveAspectRatio="xMidYMid meet">

<g transform="translate(0.000000,70.000000) scale(0.100000,-0.100000)"
fill="#000000" stroke="none">
<path d="M786 538 c-23 -32 -20 -54 10 -77 33 -26 45 -26 76 -2 13 11 40 21
59 23 26 2 34 8 34 23 0 16 -8 21 -42 23 -23 2 -47 10 -53 18 -19 22 -66 17
-84 -8z"/>
<path d="M251 524 c-155 -78 -155 -296 1 -375 77 -39 183 -23 239 37 l22 24
-23 25 c-23 25 -24 25 -44 6 -70 -63 -171 -53 -216 22 -25 40 -26 109 -3 148
19 31 85 69 122 69 24 0 76 -24 104 -48 15 -14 19 -13 37 3 28 25 25 40 -12
68 -72 53 -148 60 -227 21z"/>
<path d="M490 536 c0 -15 71 -76 88 -76 22 0 22 -2 22 -160 l0 -160 40 0 40 0
0 160 0 160 36 0 c29 0 35 3 30 16 -3 9 -6 27 -6 40 l0 24 -125 0 c-69 0 -125
-2 -125 -4z"/>
<path d="M1560 340 c0 -193 1 -200 20 -200 13 0 20 7 20 20 0 19 1 19 35 -2
49 -28 134 -22 171 13 71 66 72 162 2 225 -45 42 -118 48 -174 15 l-34 -20 0
74 c0 68 -2 75 -20 75 -19 0 -20 -7 -20 -200z m228 26 c33 -30 37 -40 37 -81
0 -41 -4 -51 -37 -81 -42 -38 -80 -44 -128 -19 -40 21 -60 53 -60 98 0 49 13
73 53 97 49 30 91 26 135 -14z"/>
<path d="M1020 335 l0 -195 117 0 c115 0 116 0 98 20 -15 17 -31 20 -97 20
l-78 0 0 175 c0 168 -1 175 -20 175 -19 0 -20 -7 -20 -195z"/>
<path d="M1335 430 c-77 -17 -119 -68 -119 -145 0 -59 27 -106 76 -131 39 -20
130 -15 156 9 24 22 32 21 32 -3 0 -11 7 -20 15 -20 13 0 15 23 15 145 0 122
-2 145 -15 145 -8 0 -15 -9 -15 -20 0 -24 -8 -25 -29 -6 -23 20 -81 33 -116
26z m103 -64 c33 -30 37 -40 37 -81 0 -41 -4 -51 -37 -81 -42 -38 -80 -44
-128 -19 -40 21 -60 53 -60 98 0 49 13 73 53 97 49 30 91 26 135 -14z"/>
<path d="M790 278 l0 -138 40 0 40 0 0 138 0 137 -40 0 -40 0 0 -137z"/>
</g>
</svg>
